<?xml version="1.0" standalone="no"?>
<!DOCTYPE svg PUBLIC "-//W3C//DTD SVG 20010904//EN"
 "http://www.w3.org/TR/2001/REC-SVG-20010904/DTD/svg10.dtd">
<svg version="1.0" xmlns="http://www.w3.org/2000/svg"
 width="352.000000pt" height="352.000000pt" viewBox="0 0 352.000000 352.000000"
 preserveAspectRatio="xMidYMid meet">
<metadata>
Created by potrace 1.11, written by Peter Selinger 2001-2013
</metadata>
<g transform="translate(0.000000,352.000000) scale(0.100000,-0.100000)"
fill="#000000" stroke="none">
<path d="M7 3513 c-4 -3 -7 -795 -7 -1760 l0 -1753 1758 2 1757 3 3 1744 c1
1281 -1 1747 -9 1757 -10 12 -300 14 -1754 14 -958 0 -1745 -3 -1748 -7z
m3413 -138 c-27 -58 -281 -569 -563 -1137 -283 -568 -644 -1295 -803 -1615
-191 -386 -294 -583 -304 -583 -18 1 -1710 3382 -1710 3418 l0 22 1714 0 1715
0 -49 -105z"/>
</g>
</svg>
